<!--©4skl.com-->
<svg viewBox="-.5 -.5 5 5" xmlns="http://www.w3.org/2000/svg" version="1.1">
<circle cx="2" cy="2" r="2.5" fill="black"  stroke="black" stroke-width="0"/>
<circle cx="2" cy="2" r="2" fill="gray"/>
<path d="M 2 4 C 1 3 3 1 2 0 C 1 1 3 3 2 4" fill="white">
    <animateTransform attributeType="xml" attributeName="transform" type="rotate" from="-60 2 2" to="300 2 2" dur="7s" additive="sum" repeatCount="indefinite" />
</path>
<path d="M 2 4 C 1 3 3 1 2 0 C 1 1 3 3 2 4" fill="white">
    <animateTransform attributeType="xml" attributeName="transform" type="rotate" from="0 2 2" to="360 2 2" dur="3s" additive="sum" repeatCount="indefinite" />
</path>
<path d="M 2 4 C 1 3 3 1 2 0 C 1 1 3 3 2 4" fill="white">
    <animateTransform attributeType="xml" attributeName="transform" type="rotate" from="60 2 2" to="420 2 2" dur="10s" repeatCount="indefinite" />
</path>
<path d="M4 2.5 2 2.5 1 2.5 4 .6 3.7.2 0 2.5 0 3C1 3 1.3 2.3 2 3L2 3C2.3 3.3 2.6 3.6 1 3.5L1 4.1C3 4.1 3.1 4.2 3 3.5 3 3-1.4.5 2 .5L2 0C-2.2 0 1.5 2.4 2 3L2 2.5C3 0 3 5 4 2.5" fill="black"/>
</svg>